<?xml version="1.0" encoding="UTF-8" standalone="no"?>
<!-- Created with Inkscape (http://www.inkscape.org/) -->

<svg
   width="59.260323mm"
   height="16.795395mm"
   viewBox="0 0 59.260322 16.795395"
   version="1.1"
   id="svg217019"
   inkscape:version="1.3.1 (9b9bdc1480, 2023-11-25, custom)"
   sodipodi:docname="title.svg"
   inkscape:export-filename="C:\Users\Stig Hornang\Documents\git\nautograf\logo_16.png"
   inkscape:export-xdpi="27.093334"
   inkscape:export-ydpi="27.093334"
   xmlns:inkscape="http://www.inkscape.org/namespaces/inkscape"
   xmlns:sodipodi="http://sodipodi.sourceforge.net/DTD/sodipodi-0.dtd"
   xmlns:xlink="http://www.w3.org/1999/xlink"
   xmlns="http://www.w3.org/2000/svg"
   xmlns:svg="http://www.w3.org/2000/svg">
  <sodipodi:namedview
     id="namedview217021"
     pagecolor="#ffffff"
     bordercolor="#666666"
     borderopacity="1.0"
     inkscape:pageshadow="2"
     inkscape:pageopacity="0.0"
     inkscape:pagecheckerboard="0"
     inkscape:document-units="mm"
     showgrid="false"
     fit-margin-top="0"
     fit-margin-left="0"
     fit-margin-right="0"
     fit-margin-bottom="0"
     inkscape:zoom="4"
     inkscape:cx="57.25"
     inkscape:cy="75.75"
     inkscape:window-width="1754"
     inkscape:window-height="1306"
     inkscape:window-x="26"
     inkscape:window-y="23"
     inkscape:window-maximized="0"
     inkscape:current-layer="layer1"
     showguides="false"
     inkscape:showpageshadow="2"
     inkscape:deskcolor="#d1d1d1" />
  <defs
     id="defs217016">
    <linearGradient
       inkscape:collect="always"
       xlink:href="#Gradient"
       id="linearGradient202212"
       gradientUnits="userSpaceOnUse"
       x1="17.301931"
       y1="45.303802"
       x2="17.256826"
       y2="40.0784"
       gradientTransform="matrix(7.3748156,0,0,7.452884,-109.14834,-277.34661)" />
    <linearGradient
       inkscape:collect="always"
       id="Gradient">
      <stop
         style="stop-color:#00d1bc;stop-opacity:1"
         offset="0"
         id="stop202389" />
      <stop
         style="stop-color:#feff82;stop-opacity:1"
         offset="1"
         id="stop202391" />
    </linearGradient>
    <filter
       inkscape:label="Combined Lighting"
       inkscape:menu="Bevels"
       inkscape:menu-tooltip="Basic specular bevel to use for building textures"
       style="color-interpolation-filters:sRGB;"
       id="filter3"
       x="-0.033127849"
       y="-0.15832788"
       width="1.0661326"
       height="1.2811277">
      <feGaussianBlur
         stdDeviation="0.74284284"
         in="SourceGraphic"
         result="result0"
         id="feGaussianBlur1" />
      <feDiffuseLighting
         lighting-color="rgb(255,255,255)"
         diffuseConstant="1.0062862875683058"
         surfaceScale="2"
         result="result5"
         id="feDiffuseLighting1">
        <feDistantLight
           elevation="45"
           azimuth="235"
           id="feDistantLight1" />
      </feDiffuseLighting>
      <feComposite
         k1="1.3893340455840448"
         in2="SourceGraphic"
         in="result5"
         result="fbSourceGraphic"
         operator="arithmetic"
         id="feComposite1"
         k2="-0.23125890313390229"
         k3="0.16248219373219364"
         k4="-0.026709401709402059" />
      <feGaussianBlur
         result="result0"
         in="fbSourceGraphic"
         stdDeviation="2"
         id="feGaussianBlur2" />
      <feSpecularLighting
         specularExponent="25"
         specularConstant="0"
         surfaceScale="4"
         lighting-color="rgb(255,255,255)"
         result="result1"
         in="result0"
         id="feSpecularLighting2">
        <feDistantLight
           azimuth="235"
           elevation="45"
           id="feDistantLight2" />
      </feSpecularLighting>
      <feComposite
         k3="1"
         k2="1"
         operator="arithmetic"
         in="fbSourceGraphic"
         in2="result1"
         result="result4"
         id="feComposite2"
         k1="0.065660612535612728" />
      <feComposite
         operator="in"
         result="result2"
         in2="SourceGraphic"
         in="result4"
         id="feComposite3"
         k1="0.070000000000000007" />
    </filter>
  </defs>
  <g
     inkscape:label="Lag 1"
     inkscape:groupmode="layer"
     id="layer1"
     transform="translate(-91.98352,-85.433664)">
    <path
       id="path5910-3-9"
       style="fill:url(#linearGradient202212);fill-opacity:1;fill-rule:nonzero;stroke:#009081;stroke-width:1.51181;stroke-linecap:butt;stroke-linejoin:miter;stroke-miterlimit:4;stroke-dasharray:none;stroke-opacity:1;filter:url(#filter3)"
       d="M 0.78320312,2.8789062 C 0.92712753,18.039869 0.9296875,33.201873 0.9296875,48.363281 c 0.0714709,5.272192 6.544978,6.771744 11.7753905,3.675781 5.230424,-3.095965 8.917929,-6.577163 12.269531,-5.951171 3.290589,0.61457 8.166016,8.371093 8.166016,8.371093 0.01134,-13.778505 0,-38.794922 0,-38.794922 0.01134,-4.135075 -6.609843,-4.046097 -6.626953,0 l -0.08398,19.625 C 15.033482,25.384493 6.6019181,13.000296 0.78320312,2.8789062 Z M 221.0918,18.466797 c -3.68531,0 -6.13215,0.756975 -7.34375,2.271484 -1.21161,1.514509 -1.81836,3.517287 -1.81836,6.007813 v 1.261718 h -3.78516 v 4.46875 h 3.78516 v 21.025391 h 5.55273 V 32.476562 h 5.6543 v -4.46875 h -5.6543 c 0,-1.58182 0.0514,-2.624069 0.15235,-3.128906 0.11779,-0.521664 0.463,-0.967677 1.03515,-1.33789 0.57215,-0.387042 1.56498,-0.582032 2.97852,-0.582032 0.26924,0 0.76468,0.02569 1.48828,0.07617 v -4.517578 c -0.82457,-0.03366 -1.50643,-0.05078 -2.04492,-0.05078 z m -118.76172,2.472656 -4.720705,0.429688 -0.529297,6.638671 h -3.509766 v 4.46875 h 3.181641 v 13.201172 c 0,2.22128 0.251023,3.870282 0.755859,4.947266 0.521665,1.060156 1.338579,1.900806 2.449219,2.523438 1.110639,0.605803 2.440119,0.910156 3.988279,0.910156 0.94236,0 2.27184,-0.186428 3.98828,-0.556641 v -4.492187 c -0.50483,0.03366 -0.9851,0.05078 -1.43945,0.05078 -1.61548,0 -2.71766,-0.287227 -3.30664,-0.859375 -0.57215,-0.588976 -0.85742,-1.682602 -0.85742,-3.28125 v -12.44336 h 5.12304 v -4.46875 h -5.12304 z m 57.95508,2.197266 c -3.3151,0 -5.35873,1.623313 -6.13282,4.871093 -1.66596,-0.353385 -3.30835,-0.529296 -4.92382,-0.529296 -3.53386,0 -6.16712,0.748412 -7.9004,2.246093 -1.73327,1.497682 -2.5996,3.307422 -2.5996,5.427735 0,2.507354 1.1773,4.47588 3.5332,5.90625 -2.70929,1.312574 -4.0625,3.079501 -4.0625,5.300781 0,1.464025 0.78927,2.868613 2.37109,4.214844 -2.4737,1.177951 -3.70898,2.902064 -3.70898,5.173828 0,4.594011 4.11296,6.892578 12.34179,6.892578 4.37525,0 7.67521,-0.791226 9.89649,-2.373047 2.23811,-1.581821 3.35547,-3.576035 3.35547,-5.982422 0,-1.985689 -0.73985,-3.643254 -2.2207,-4.972656 -1.46403,-1.34623 -3.49054,-2.019531 -6.08204,-2.019531 h -7.57422 c -1.16112,0 -2.02746,-0.261539 -2.5996,-0.783203 -0.57215,-0.521665 -0.85743,-1.094166 -0.85743,-1.716797 0,-1.127468 0.58768,-1.959555 1.76563,-2.498047 1.80058,0.437525 3.37447,0.65625 4.7207,0.65625 3.11316,0 5.61333,-0.73985 7.49805,-2.220703 1.90155,-1.480854 2.85156,-3.34858 2.85156,-5.603516 0,-2.019345 -1.00995,-3.854774 -3.0293,-5.503906 0.55532,-1.009673 1.11926,-1.605909 1.69141,-1.791016 0.58898,-0.185106 1.27084,-0.277343 2.04492,-0.277343 h 1.76758 V 23.136719 Z M 8.1425781,25.777344 c 0.5945817,-0.007 1.2975419,0.407193 1.9785159,1.3125 1.676239,2.228439 8.789062,11.357422 8.789062,11.357422 1.313507,1.859198 1.055547,2.977627 -1.011718,4.146484 0,0 -6.524358,3.654146 -8.5253911,4.597656 C 7.4699338,48.219608 6.6517081,45.799948 6.6621094,44.230469 6.6726921,42.660986 6.61787,30.969292 6.6289062,28.289062 c 0.00651,-1.591386 0.644668,-2.501495 1.5136719,-2.511718 z M 178.20703,27.25 c -1.36306,0 -2.69253,0.546813 -3.98828,1.640625 -1.29575,1.093812 -2.31426,2.828441 -3.05469,5.201172 v -6.083985 h -5.19922 v 25.494141 h 5.75391 v -11.8125 c 0,-1.750099 0.4717,-3.55984 1.41406,-5.427734 0.95919,-1.867895 2.90398,-2.800781 5.83203,-2.800781 V 27.275391 C 178.64511,27.258563 178.39214,27.25 178.20703,27.25 Z M 51.089844,27.478516 c -3.634822,0 -6.4117,0.690426 -8.330078,2.070312 -1.918379,1.363058 -3.012004,3.104297 -3.28125,5.22461 L 44.375,35.505859 c 0.471181,-2.641977 2.456832,-3.964843 5.957031,-3.964843 3.601166,0 5.402344,1.322866 5.402344,3.964843 v 1.917969 c -0.689943,-0.01683 -1.236756,-0.02539 -1.640625,-0.02539 -10.281834,0 -15.423828,2.927101 -15.423828,8.783203 0,2.254935 0.765538,4.131225 2.296875,5.628906 1.548165,1.480853 3.593756,2.222656 6.134765,2.222656 4.223798,0 7.101476,-1.893415 8.632813,-5.679687 0.100967,1.884722 0.394804,3.600272 0.882813,5.148437 H 62.09375 C 61.588914,51.735026 61.337891,50.019476 61.337891,48.353516 V 36.841797 c 0,-2.187624 -0.169302,-3.733873 -0.50586,-4.642578 -0.319729,-0.925534 -0.907403,-1.776699 -1.765625,-2.550781 -0.858222,-0.790911 -1.910987,-1.346286 -3.15625,-1.666016 -1.245263,-0.336558 -2.85145,-0.503906 -4.820312,-0.503906 z m 71.105466,0 c -3.60116,0 -6.50453,1.252411 -8.70898,3.759765 -2.18763,2.507354 -3.28125,5.646571 -3.28125,9.416016 0,3.500199 0.99282,6.605164 2.97851,9.314453 1.98569,2.709289 4.86337,4.064453 8.63282,4.064453 3.5002,0 6.38644,-1.220114 8.6582,-3.660156 2.28859,-2.45687 3.43359,-5.696887 3.43359,-9.71875 0,-3.904068 -1.10219,-7.075583 -3.30664,-9.515625 -2.18762,-2.440043 -4.99019,-3.660156 -8.40625,-3.660156 z m 71.71289,0 c -3.63482,0 -6.4117,0.690426 -8.33008,2.070312 -1.91837,1.363058 -3.012,3.104297 -3.28124,5.22461 l 4.89648,0.732421 c 0.47118,-2.641977 2.45683,-3.964843 5.95703,-3.964843 3.60117,0 5.40039,1.322866 5.40039,3.964843 v 1.917969 c -0.68994,-0.01683 -1.23675,-0.02539 -1.64062,-0.02539 -10.28184,0 -15.42188,2.927101 -15.42188,8.783203 0,2.254935 0.76554,4.131225 2.29688,5.628906 1.54816,1.480853 3.59375,2.222656 6.13476,2.222656 4.2238,0 7.09952,-1.893415 8.63086,-5.679687 0.10097,1.884722 0.39676,3.600272 0.88477,5.148437 h 5.47656 c -0.50484,-1.766927 -0.75586,-3.482477 -0.75586,-5.148437 V 36.841797 c 0,-2.187624 -0.1693,-3.733873 -0.50586,-4.642578 -0.31973,-0.925534 -0.90936,-1.776699 -1.76758,-2.550781 -0.85822,-0.790911 -1.90903,-1.346286 -3.15429,-1.666016 -1.24527,-0.336558 -2.85146,-0.503906 -4.82032,-0.503906 z M 68.228516,28.007812 v 17.845704 c 0,2.574665 0.681863,4.586005 2.044922,6.033203 1.363058,1.430369 3.205096,2.146484 5.527343,2.146484 3.920896,0 6.605537,-2.01134 8.052735,-6.033203 v 5.501953 h 5.351562 V 28.007812 H 83.449219 V 40.25 c 0,3.65165 -0.647613,6.042454 -1.94336,7.169922 -1.295746,1.11064 -2.567237,1.666016 -3.8125,1.666016 -0.774082,0 -1.565308,-0.287228 -2.373047,-0.859376 -0.807738,-0.572147 -1.210937,-1.775136 -1.210937,-3.609374 V 28.007812 Z m 81.228514,3.105469 c 1.49768,0 2.63217,0.386074 3.40625,1.160157 0.79091,0.774082 1.1875,1.726047 1.1875,2.853515 0,2.944879 -1.56533,4.416016 -4.69531,4.416016 -1.46403,0 -2.60903,-0.386074 -3.43359,-1.160157 -0.82457,-0.774082 -1.23633,-1.784033 -1.23633,-3.029296 0,-1.211608 0.41176,-2.221559 1.23633,-3.029297 0.84139,-0.807738 2.02064,-1.210938 3.53515,-1.210938 z m -27.28711,1.085938 c 1.91838,0 3.34009,0.756975 4.26563,2.271484 0.92553,1.497681 1.38867,3.549882 1.38867,6.158203 0,5.771963 -1.93623,8.658203 -5.80664,8.658203 -1.76693,0 -3.16295,-0.731287 -4.18946,-2.195312 -1.00967,-1.464026 -1.51367,-3.584728 -1.51367,-6.361328 0,-2.574666 0.47831,-4.637382 1.4375,-6.185547 0.95919,-1.564993 2.43228,-2.345703 4.41797,-2.345703 z M 55.734375,40.527344 V 42.875 c 0,1.766927 -0.563938,3.34938 -1.691406,4.746094 -1.11064,1.379886 -2.759642,2.070312 -4.947266,2.070312 -1.514509,0 -2.650948,-0.370901 -3.408203,-1.111328 -0.740427,-0.757254 -1.111328,-1.666406 -1.111328,-2.726562 0,-3.550683 3.72028,-5.326172 11.158203,-5.326172 z m 142.816405,0 V 42.875 c 0,1.766927 -0.56198,3.34938 -1.68945,4.746094 -1.11064,1.379886 -2.75964,2.070312 -4.94727,2.070312 -1.51451,0 -2.65095,-0.370901 -3.4082,-1.111328 -0.74043,-0.757254 -1.11133,-1.666406 -1.11133,-2.726562 0,-3.550683 3.71833,-5.326172 11.15625,-5.326172 z m -55.50586,11.585937 c 1.59865,0.420697 2.9795,0.632813 4.14063,0.632813 h 6.10742 c 0.99284,0 1.87631,0.218725 2.65039,0.65625 0.77408,0.420697 1.16211,1.051184 1.16211,1.892578 0,2.271764 -2.21294,3.408203 -6.63867,3.408203 -3.01219,0 -5.20801,-0.446013 -6.58789,-1.337891 -1.37989,-0.875049 -2.07032,-1.893563 -2.07032,-3.054687 0,-0.706771 0.41177,-1.440011 1.23633,-2.197266 z"
       transform="matrix(0.26458333,0,0,0.26458333,91.98352,85.433664)" />
  </g>
</svg>
