<?xml version="1.0" encoding="UTF-8" standalone="no"?>
<!-- Created with Inkscape (http://www.inkscape.org/) -->

<svg
   width="7.9824448mm"
   height="5.140645mm"
   viewBox="0 0 7.9824447 5.1406451"
   version="1.1"
   id="svg5"
   xmlns="http://www.w3.org/2000/svg"
   xmlns:svg="http://www.w3.org/2000/svg">
  <defs
     id="defs2" />
  <g
     id="layer1"
     transform="translate(-19.873062,-21.16541)">
    <path
       d="m 25.849198,24.982349 h -0.913145 c -0.08893,-0.530114 -0.551767,-0.943943 -1.112648,-0.943943 -0.502742,0 -0.925688,0.330619 -1.072749,0.778634 -0.0376,-1.051083 -0.270199,-1.890136 -0.780907,-2.731469 0.356822,-0.09349 0.793447,-0.140246 1.298472,-0.140246 0.904027,0 1.580051,0.205104 2.010974,0.554072 0.420664,0.348822 0.656643,0.851559 0.666904,1.631332 0,0.112771 -0.01021,0.2463 -0.01928,0.369361 -0.01578,0.18582 -0.0376,0.323782 -0.07752,0.482227"
       style="fill:#000000;fill-opacity:1;fill-rule:nonzero;stroke:none;stroke-width:0.390186"
       id="path3569" />
    <path
       d="M 27.855498,25.361966 H 26.54563 c 0.04217,-0.133517 0.07408,-0.258864 0.09691,-0.379617 h 1.212967 v 0.379617 m -1.346346,0 h -1.574353 c 0.01132,-0.06369 0.01724,-0.128845 0.01724,-0.194878 v -0.02044 h 0.851586 l 0.705667,0.215329"
       style="fill:#000000;fill-opacity:1;fill-rule:nonzero;stroke:none;stroke-width:0.390186"
       id="path3573" />
    <path
       d="m 25.803484,25.146491 h -0.851587 c -0.0011,-0.05581 -0.0067,-0.110444 -0.01578,-0.1642 h 0.913147 c -0.0126,0.0523 -0.02746,0.106058 -0.04561,0.1642"
       style="fill:#000000;fill-opacity:1;fill-rule:nonzero;stroke:none;stroke-width:0.390186"
       id="path3577" />
    <path
       d="m 22.695822,25.140793 -0.391024,-0.06604 c 0,0 0.0011,-0.0059 0.0035,-0.01467 l 0.392163,-0.0059 c -0.0022,0.02921 -0.0035,0.05697 -0.0043,0.0856"
       style="fill:#000000;fill-opacity:1;fill-rule:nonzero;stroke:none;stroke-width:0.390186"
       id="path3585" />
    <path
       d="m 26.542209,25.37222 -0.03304,-0.0088 h 0.0365 c -0.0011,0.0029 -0.0022,0.0059 -0.0035,0.0088 m 0.100334,-0.389871 h -0.351124 c 0.393304,-2.642533 -1.256289,-3.462216 -2.816962,-3.462216 -0.613323,0 -1.212964,0.126517 -1.668969,0.319225 l -0.07524,-0.109566 -0.533522,0.36936 0.171008,0.239288 c -0.02309,0.01467 -0.04673,0.03214 -0.0684,0.04792 -0.400144,0.297517 -0.636125,0.738723 -0.646385,1.600566 0,0.153976 0.01021,0.328312 0.03071,0.512991 0.0067,0.135575 0.04902,0.292988 0.0741,0.482227 h -0.782047 c -0.02045,-0.115115 -0.04561,-0.247467 -0.06156,-0.400155 -0.03071,-0.21533 -0.04105,-0.410381 -0.04105,-0.595063 0,-1.005504 0.328324,-1.774991 0.964448,-2.226453 0.636125,-0.451432 1.46719,-0.584807 2.431635,-0.595063 1.015751,0.01164 1.877596,0.225847 2.493198,0.738723 0.625867,0.502737 0.96445,1.28251 0.954188,2.226424 0,0.143738 0,0.297517 -0.02074,0.451432 -0.01021,0.133517 -0.02746,0.264415 -0.05358,0.400155"
       style="fill:#000000;fill-opacity:1;fill-rule:nonzero;stroke:none;stroke-width:0.390186"
       id="path3589" />
    <path
       d="m 26.291523,24.982349 h -0.442325 c 0.04105,-0.158361 0.06156,-0.296407 0.07752,-0.482226 0.01021,-0.123009 0.02075,-0.256526 0.02075,-0.369362 -0.01021,-0.779773 -0.246241,-1.28251 -0.666905,-1.631361 -0.430924,-0.348852 -1.108089,-0.554041 -2.010974,-0.554041 -0.506167,0 -0.942789,0.04676 -1.298471,0.140245 -0.0126,-0.02045 -0.02397,-0.03886 -0.03535,-0.05814 l -0.129994,-0.188157 c 0.456004,-0.19254 1.055648,-0.319196 1.668975,-0.319196 1.560667,0 3.21026,0.819654 2.816957,3.462187"
       style="fill:#000000;fill-opacity:1;fill-rule:nonzero;stroke:none;stroke-width:0.390186"
       id="path3593" />
    <path
       d="m 26.54563,25.361966 h -0.03649 l -0.705668,-0.215623 h 0.461701 c 0.01021,-0.0558 0.01812,-0.110442 0.0263,-0.164199 h 0.351124 c -0.02307,0.120952 -0.05469,0.2463 -0.09691,0.379618"
       style="fill:#000000;fill-opacity:1;fill-rule:nonzero;stroke:none;stroke-width:0.390186"
       id="path3597" />
    <path
       d="m 26.265188,25.146491 h -0.461704 c 0.01811,-0.05814 0.03307,-0.111608 0.0456,-0.1642 h 0.442322 c -0.0082,0.05347 -0.01578,0.108402 -0.02629,0.1642"
       style="fill:#000000;fill-opacity:1;fill-rule:nonzero;stroke:none;stroke-width:0.390186"
       id="path3601" />
    <path
       d="m 20.776048,25.2491 h -0.769507 c 0,-0.07654 -0.01339,-0.165367 -0.03071,-0.266751 h 0.782048 c 0.01021,0.08211 0.01812,0.170919 0.01812,0.266751"
       style="fill:#000000;fill-opacity:1;fill-rule:nonzero;stroke:none;stroke-width:0.390186"
       id="path3605" />
    <path
       d="m 22.31962,24.982349 h -0.212057 c -0.01811,-1.081876 -0.216615,-1.795531 -0.715927,-2.606069 l 0.0011,-0.0011 -0.02513,-0.03652 c 0.08207,-0.05347 0.173286,-0.101385 0.274756,-0.143754 0.882366,0.927962 0.733026,2.405406 0.677166,2.787333"
       style="fill:#000000;fill-opacity:1;fill-rule:nonzero;stroke:none;stroke-width:0.390186"
       id="path3609" />
    <path
       d="m 22.71064,24.982349 h -0.389883 c 0.05586,-0.381896 0.20408,-1.85937 -0.677163,-2.787332 0.100302,-0.0409 0.209749,-0.07742 0.327184,-0.109566 0.510723,0.841333 0.743287,1.680387 0.780904,2.731469 -0.01811,0.05347 -0.03199,0.108402 -0.04104,0.16537"
       style="fill:#000000;fill-opacity:1;fill-rule:nonzero;stroke:none;stroke-width:0.390186"
       id="path3613" />
    <path
       d="m 22.109974,25.064421 c 0,-0.02921 -0.0011,-0.05463 -0.0011,-0.08211 h 0.210889 c -0.0043,0.03769 -0.0091,0.064 -0.0126,0.07859 l -0.197216,0.0029"
       style="fill:#000000;fill-opacity:1;fill-rule:nonzero;stroke:none;stroke-width:0.390186"
       id="path3617" />
    <path
       d="m 22.30708,25.061002 c 0.0022,-0.01467 0.0082,-0.0409 0.0126,-0.07859 h 0.39102 c -0.0043,0.02337 -0.0082,0.04792 -0.01021,0.07305 l -0.393302,0.0059"
       style="fill:#000000;fill-opacity:1;fill-rule:nonzero;stroke:none;stroke-width:0.390186"
       id="path3621" />
    <path
       d="m 21.367824,22.338678 -0.171007,-0.239288 0.533523,-0.369362 0.07524,0.109566 c -0.129993,0.05463 -0.24855,0.113951 -0.352265,0.177932 0.0684,0.05697 0.131094,0.116279 0.18924,0.177931 -0.101466,0.04207 -0.192657,0.08999 -0.274729,0.143755"
       style="fill:#000000;fill-opacity:1;fill-rule:nonzero;stroke:none;stroke-width:0.390186"
       id="path3625" />
    <path
       d="m 21.643594,22.195017 c -0.05925,-0.06164 -0.121987,-0.120664 -0.190377,-0.177932 0.103713,-0.06369 0.222282,-0.123008 0.352263,-0.177931 l 0.129993,0.188158 c 0.0126,0.02046 0.02395,0.03886 0.03535,0.05814 -0.11856,0.03214 -0.226841,0.06837 -0.327184,0.109566"
       style="fill:#000000;fill-opacity:1;fill-rule:nonzero;stroke:none;stroke-width:0.390186"
       id="path3629" />
    <path
       d="m 23.823288,26.30588 c -0.559739,0 -1.020307,-0.410382 -1.111504,-0.943914 h 0.157308 V 25.04277 c 0.05469,-0.250683 0.248549,-0.788889 0.902885,-0.788889 0.841326,0 0.943927,0.89261 0.943927,0.89261 h 0.102614 v 0.215621 h 0.116247 c -0.09118,0.533532 -0.551767,0.943943 -1.111511,0.943943 m -0.748973,-1.138879 c 0,0.410411 0.338581,0.748977 0.748984,0.748977 0.410402,0 0.738726,-0.32831 0.738726,-0.748977 0,-0.410411 -0.328324,-0.738723 -0.738726,-0.738723 -0.410403,0 -0.748984,0.328312 -0.748984,0.738723"
       style="fill:#000000;fill-opacity:1;fill-rule:nonzero;stroke:none;stroke-width:0.390186"
       id="path3633" />
    <path
       d="m 24.818516,25.146491 h -0.102614 c 0,0 -0.102613,-0.89261 -0.943925,-0.89261 -0.654364,0 -0.848164,0.538089 -0.902886,0.788889 v -0.06048 h -0.114 c -0.0011,-0.05581 -0.0022,-0.11073 -0.0043,-0.16537 0.148188,-0.448042 0.570003,-0.778633 1.072744,-0.778633 0.562029,0 1.02487,0.413829 1.112652,0.943914 H 24.81876 v 0.1642"
       style="fill:#000000;fill-opacity:1;fill-rule:nonzero;stroke:none;stroke-width:0.390186"
       id="path3637" />
    <path
       d="m 24.9348,25.361966 h -0.116279 v -0.215623 h 0.132241 c 0,0.0059 0.0011,0.01467 0.0011,0.02045 0,0.06604 -0.0067,0.131189 -0.01724,0.194878"
       style="fill:#000000;fill-opacity:1;fill-rule:nonzero;stroke:none;stroke-width:0.390186"
       id="path3641" />
    <path
       d="m 24.951897,25.146491 h -0.133405 v -0.1642 h 0.11856 c 0.0091,0.05347 0.01339,0.108402 0.01483,0.1642"
       style="fill:#000000;fill-opacity:1;fill-rule:nonzero;stroke:none;stroke-width:0.390186"
       id="path3645" />
    <path
       d="m 22.869102,25.361966 h -0.157309 c -0.01132,-0.06369 -0.01724,-0.128845 -0.01724,-0.194878 0,-0.0088 0,-0.01753 0.0011,-0.02629 l 0.152748,0.02629 c 0,0 0.0043,-0.04909 0.02046,-0.124172 v 0.319225"
       style="fill:#000000;fill-opacity:1;fill-rule:nonzero;stroke:none;stroke-width:0.390186"
       id="path3649" />
    <path
       d="m 22.848582,25.16703 -0.152748,-0.02629 c 0,-0.02921 0.0011,-0.05697 0.0043,-0.0856 l 0.05586,-0.0011 c 0,-0.02337 -0.0011,-0.04792 -0.0011,-0.07187 h 0.113999 v 0.06048 c -0.01724,0.07538 -0.02045,0.124172 -0.02045,0.124172"
       style="fill:#000000;fill-opacity:1;fill-rule:nonzero;stroke:none;stroke-width:0.390186"
       id="path3653" />
    <path
       d="m 22.755103,24.982349 h -0.04448 c 0.0091,-0.05697 0.02308,-0.111607 0.04105,-0.165368 0.0011,0.05463 0.0022,0.109566 0.0035,0.165368"
       style="fill:#000000;fill-opacity:1;fill-rule:nonzero;stroke:none;stroke-width:0.390186"
       id="path3657" />
    <path
       d="m 22.700382,25.055303 c 0.0022,-0.02629 0.0059,-0.04909 0.01021,-0.07305 h 0.04447 c 0,0.02337 0.0011,0.04792 0.0011,0.07187 l -0.05586,0.0011"
       style="fill:#000000;fill-opacity:1;fill-rule:nonzero;stroke:none;stroke-width:0.390186"
       id="path3661" />
  </g>
</svg>
