<?xml version="1.0" encoding="UTF-8"?>
<!-- Created with Inkscape (http://www.inkscape.org/) -->
<svg width="26.73" height="16.011" version="1.1" viewBox="0 1 26.73 16.011" xmlns="http://www.w3.org/2000/svg">
 <path d="m13.911 1.0521c-7.8383-0.098107-11.816 3.1644-11.855 11.787h-2.0051v0.83584h9.7065c0.25992 1.8763 1.8465 3.2759 3.7259 3.2868 1.8793-0.01092 3.4659-1.4106 3.7259-3.2868h9.4719v-0.83584h-1.6756c0.098695-8.3783-2.5521-11.68-11.094-11.787zm-8.5405 3.3733s3.2811 5.3864 3.2571 8.484l-5.7999-0.015481c-0.18987-3.2659 0.81122-6.5835 2.5427-8.4685zm8.0952 5.6496c1.6926-1.69e-4 3.0649 1.3831 3.0647 3.0894 1.68e-4 1.7063-1.372 3.0896-3.0647 3.0894-1.6926 1.67e-4 -3.0649-1.3831-3.0647-3.0894-1.67e-4 -1.7063 1.372-3.0894 3.0647-3.0894z" fill="none" stroke="#000" stroke-width=".1"/>
</svg>
