<?xml version="1.0" encoding="UTF-8"?>
<!-- Created with Inkscape (http://www.inkscape.org/) -->
<svg width="29.866" height="21.177" version="1.1" viewBox="0 0 29.866 21.177" xmlns="http://www.w3.org/2000/svg">
 <path d="m6.3823 0.22415-3.2852 16.012h-2.9082v0.89062h11.102a3.8026 3.8026 0 0 0-0.0039 0.05859 3.8026 3.8026 0 0 0 3.8027 3.8027 3.8026 3.8026 0 0 0 3.8027-3.8027 3.8026 3.8026 0 0 0-2e-3 -0.05859h10.787v-0.89062h-3.2754l2.3204-11.297zm8.707 13.887c1.6679-1.7e-4 3.0195 1.3875 3.0195 3.0996 1.66e-4 1.7121-1.3516 3.0997-3.0195 3.0996-1.6679 1.7e-4 -3.0215-1.3875-3.0215-3.0996-1.65e-4 -1.7122 1.3536-3.0997 3.0215-3.0996z" fill="none" stroke="#000" stroke-width=".1"/>
</svg>
