<?xml version="1.0" encoding="UTF-8" standalone="no"?>
<!-- Created with Inkscape (http://www.inkscape.org/) -->

<svg
   width="6.7777772mm"
   height="4.2250204mm"
   viewBox="0 0 6.7777773 4.2250204"
   version="1.1"
   id="svg5"
   xmlns="http://www.w3.org/2000/svg"
   xmlns:svg="http://www.w3.org/2000/svg">
  <defs
     id="defs2" />
  <g
     id="layer1"
     transform="translate(-6.1513529,-3.8786959)">
    <g
       id="g15465"
       transform="matrix(2.2787102,0,0,2.2787102,-7.8657979,-4.9597282)"
       style="stroke-width:0.438845">
      <path
         d="M 8.726975,5.300926 H 7.995765 C 7.964935,5.129635 7.81745,5.002433 7.636793,5.002433 c -0.177924,0 -0.327756,0.127202 -0.358971,0.298493 H 6.533346 L 6.916899,3.878696 8.953672,4.423007 8.726975,5.300926 m -1.311807,-0.0012 c 0.0097,-0.03239 0.02653,-0.06126 0.04838,-0.08584 -0.01951,0.02965 -0.0359,0.0597 -0.04838,0.08584 m 0.432716,-0.03161 c -0.0059,-0.01095 -0.0121,-0.02185 -0.01912,-0.03277 0.0071,0.01018 0.01366,0.02107 0.01912,0.03277"
         style="fill:#000000;fill-opacity:1;fill-rule:nonzero;stroke:none;stroke-width:0.171232"
         id="path3445" />
      <path
         d="m 9.125745,5.43437 h -1.12998 c 0.0039,-0.02146 0.0062,-0.04409 0.0062,-0.06672 l 0.702336,0.02107 0.02263,-0.08779 h 0.39877 v 0.133444"
         style="fill:#000000;fill-opacity:1;fill-rule:nonzero;stroke:none;stroke-width:0.171232"
         id="path3449" />
      <path
         d="M 8.704383,5.388718 8.002047,5.367258 c 0,-0.02263 -0.0023,-0.04487 -0.0062,-0.06633 h 0.731209 l -0.02263,0.08779"
         style="fill:#000000;fill-opacity:1;fill-rule:nonzero;stroke:none;stroke-width:0.171232"
         id="path3453" />
      <path
         d="M 7.277822,5.43437 H 6.151353 V 5.300926 h 0.381603 l -0.02341,0.08779 0.762034,-0.01522 c 3.91e-4,0.02068 0.0023,0.04097 0.0062,0.06087"
         style="fill:#000000;fill-opacity:1;fill-rule:nonzero;stroke:none;stroke-width:0.171232"
         id="path3457" />
      <path
         d="m 6.509584,5.388718 0.0238,-0.08779 H 7.27786 c -0.0039,0.02146 -0.0062,0.0437 -0.0062,0.06672 v 0.0059 l -0.762034,0.01522"
         style="fill:#000000;fill-opacity:1;fill-rule:nonzero;stroke:none;stroke-width:0.171232"
         id="path3461" />
      <path
         d="m 7.636793,5.732824 c -0.177534,0 -0.326975,-0.129542 -0.358971,-0.298493 h 0.106136 v -0.06321 c 0,0 0.01095,-0.03044 0.03121,-0.07141 -0.0066,0.02146 -0.01018,0.04409 -0.01018,0.06789 0,0.12642 0.10535,0.231771 0.23177,0.231771 0.129932,0 0.231771,-0.105351 0.235283,-0.231771 -0.0012,-0.0359 -0.0097,-0.06945 -0.02419,-0.0995 0.02888,0.05268 0.04526,0.09598 0.04526,0.09598 l 0.02459,7.79e-4 v 0.06946 h 0.07804 C 7.964531,5.603271 7.817427,5.732812 7.636769,5.732812 M 7.828741,5.235324 c -0.04214,-0.06048 -0.111592,-0.0995 -0.191972,-0.0995 -0.06829,0 -0.130321,0.03004 -0.173242,0.07804 0.04409,-0.0675 0.104178,-0.130712 0.173242,-0.130712 0.0796,0 0.146711,0.07804 0.191972,0.152173"
         style="fill:#000000;fill-opacity:1;fill-rule:nonzero;stroke:none;stroke-width:0.171232"
         id="path3465" />
      <path
         d="M 7.383952,5.371121 V 5.300891 H 7.277816 c 0.03121,-0.171292 0.181438,-0.298492 0.358971,-0.298492 0.181047,0 0.328538,0.1272 0.359363,0.298492 H 7.91772 v 0.06399 l -0.02459,-7.8e-4 c 0,0 -0.01639,-0.04331 -0.04526,-0.09598 C 7.84247,5.256421 7.83617,5.245491 7.82875,5.235351 7.78349,5.161211 7.716376,5.083179 7.636778,5.083179 c -0.06906,0 -0.129152,0.06321 -0.173243,0.130711 -0.02184,0.02458 -0.03863,0.05345 -0.04838,0.08584 -0.0199,0.04097 -0.03121,0.07141 -0.03121,0.07141"
         style="fill:#000000;fill-opacity:1;fill-rule:nonzero;stroke:none;stroke-width:0.171232"
         id="path3469" />
      <path
         d="M 7.995765,5.43437 H 7.917725 V 5.36492 l 0.08428,0.0028 c 0,0.02263 -0.0023,0.04526 -0.0062,0.06672"
         style="fill:#000000;fill-opacity:1;fill-rule:nonzero;stroke:none;stroke-width:0.171232"
         id="path3473" />
      <path
         d="m 8.002008,5.367648 -0.08428,-0.0028 v -0.064 h 0.07804 c 0.0039,0.02186 0.0062,0.04409 0.0062,0.06672"
         style="fill:#000000;fill-opacity:1;fill-rule:nonzero;stroke:none;stroke-width:0.171232"
         id="path3477" />
      <path
         d="M 7.383952,5.43437 H 7.277816 c -0.0035,-0.0199 -0.0059,-0.04019 -0.0062,-0.06086 l 0.112373,-0.0023 v 0.06321"
         style="fill:#000000;fill-opacity:1;fill-rule:nonzero;stroke:none;stroke-width:0.171232"
         id="path3481" />
      <path
         d="m 7.271578,5.373501 v -0.0059 c 0,-0.02263 0.002,-0.04487 0.0059,-0.06672 h 0.106523 v 0.07023 l -0.112374,0.0023"
         style="fill:#000000;fill-opacity:1;fill-rule:nonzero;stroke:none;stroke-width:0.171232"
         id="path3485" />
    </g>
  </g>
</svg>
