<?xml version="1.0" encoding="UTF-8"?>
<!-- Created with Inkscape (http://www.inkscape.org/) -->
<svg width="22.814" height="27.965" version="1.1" viewBox="0 0 22.814 27.965" xmlns="http://www.w3.org/2000/svg">
 <path d="m16.04 0.47671c-3.9828 1.5122-7.2865 4.4405-9.8086 7.8223-3.3786 4.618-5.702 10.148-6.0312 15.898l7.6699-0.04687h0.072266a3.7314 3.7314 0 0 0 3.7227 3.625 3.7314 3.7314 0 0 0 3.7266-3.6582l0.61133-2e-3 6.2754-0.03906c0.30673-1.9654 0.38544-3.9627 0.33008-5.9492-0.1779-6.3665-2.131-12.934-6.5684-17.65zm-4.3301 20.418c1.6679-1.69e-4 3.0195 1.3875 3.0195 3.0996 1.66e-4 1.7121-1.3516 3.0997-3.0195 3.0996-1.6679 1.7e-4 -3.0195-1.3875-3.0195-3.0996-1.65e-4 -1.7122 1.3516-3.0997 3.0195-3.0996z" fill="none" stroke="#000" stroke-width=".1"/>
</svg>
