<?xml version="1.0" encoding="UTF-8" standalone="no"?>
<!-- Created with Inkscape (http://www.inkscape.org/) -->

<svg
   width="5.942812mm"
   height="5.4397173mm"
   viewBox="0 0 5.9428121 5.4397173"
   version="1.1"
   id="svg5"
   xmlns="http://www.w3.org/2000/svg"
   xmlns:svg="http://www.w3.org/2000/svg">
  <defs
     id="defs2" />
  <g
     id="layer1"
     transform="translate(-4.7609462,-2.2157418)">
    <path
       d="M 10.703758,6.9872001 H 8.5359089 c 0.00694,-0.035793 0.011411,-0.072504 0.013207,-0.1100436 h 1.4787121 c 0.0078,-0.063752 0.01477,-0.1266315 0.02171,-0.1886601 h 0.654197 v 0.2987132"
       style="fill:#000000;fill-opacity:1;fill-rule:nonzero;stroke:none;stroke-width:0.390187"
       id="path3401" />
    <path
       d="M 6.936659,6.9872001 H 4.7609462 V 6.6884869 h 0.5651116 c -0.00872,0.036689 -0.015669,0.073356 -0.022788,0.110045 H 6.923481 c 0,0.013207 -8.731e-4,0.02619 -8.731e-4,0.039285 0,0.050657 0.00515,0.1004408 0.013879,0.1493521"
       style="fill:#000000;fill-opacity:1;fill-rule:nonzero;stroke:none;stroke-width:0.390187"
       id="path3405" />
    <path
       d="M 10.049648,6.688572 H 8.5368691 C 8.4678565,6.3051386 8.1377126,6.0204002 7.7324404,6.0204002 c -0.3974105,0 -0.7266925,0.2847384 -0.795694,0.6681718 H 5.3261429 C 5.7366531,4.7941055 7.7665035,2.7782322 9.1316743,2.2157418 9.5980841,3.1014009 10.270625,4.5661398 10.049648,6.688572"
       style="fill:#000000;fill-opacity:1;fill-rule:nonzero;stroke:none;stroke-width:0.390187"
       id="path3409" />
    <path
       d="M 10.027725,6.8772343 H 8.5490108 c 0,-0.013207 8.707e-4,-0.02619 8.707e-4,-0.039307 0,-0.05153 -0.00515,-0.1013144 -0.013879,-0.1493522 h 1.5136545 c -0.0069,0.062029 -0.01388,0.1249078 -0.02171,0.1886601"
       style="fill:#000000;fill-opacity:1;fill-rule:nonzero;stroke:none;stroke-width:0.390187"
       id="path3413" />
    <path
       d="m 6.9235571,6.7985379 h -1.620211 c 0.00694,-0.036689 0.013879,-0.073356 0.021714,-0.1100449 H 6.935663 C 6.929393,6.724286 6.925361,6.760997 6.923575,6.7985379"
       style="fill:#000000;fill-opacity:1;fill-rule:nonzero;stroke:none;stroke-width:0.390187"
       id="path3417" />
    <path
       d="m 7.7323532,7.6554593 c -0.3974083,0 -0.7258196,-0.2899787 -0.7956942,-0.668174 H 7.072043 V 6.688572 H 7.016126 C 7.092123,6.5086421 7.2947509,6.1688838 7.7532992,6.1688838 c 0.011411,0 0.022788,8.731e-4 0.034069,8.731e-4 0.3808167,0.015669 0.5362865,0.3144341 0.5974265,0.5188151 H 8.3612685 V 6.9872853 H 8.5359604 C 8.4660971,7.3654806 8.1368037,7.6554593 7.7324047,7.6554593 M 7.2135873,6.8379286 c 0,0.2829923 0.235825,0.5188173 0.5188174,0.5188173 0.2908516,0 0.5188151,-0.235825 0.5266766,-0.5188173 -0.00783,-0.2908516 -0.235825,-0.5188151 -0.5266766,-0.5188151 -0.2829924,0 -0.5188174,0.2279769 -0.5188174,0.5188151"
       style="fill:#000000;fill-opacity:1;fill-rule:nonzero;stroke:none;stroke-width:0.390187"
       id="path3421" />
    <path
       d="M 8.5359939,6.9872001 H 8.361302 V 6.6884869 H 8.384828 C 8.417129,6.7959121 8.424136,6.877147 8.424136,6.877147 h 0.1249078 c -0.00175,0.037561 -0.00627,0.07425 -0.013207,0.1100437"
       style="fill:#000000;fill-opacity:1;fill-rule:nonzero;stroke:none;stroke-width:0.390187"
       id="path3425" />
    <path
       d="M 7.0720407,6.9872001 H 6.9366568 C 6.9279325,6.9383118 6.922778,6.8885055 6.922778,6.837848 c 0,-0.013207 0,-0.02619 8.752e-4,-0.039285 h 0.054149 c 0,0 0.010302,-0.044546 0.038435,-0.1100449 h 0.055895 v 0.2987133"
       style="fill:#000000;fill-opacity:1;fill-rule:nonzero;stroke:none;stroke-width:0.390187"
       id="path3429" />
    <path
       d="M 8.5359939,6.688572 H 8.3848957 C 8.3237625,6.4841978 8.168277,6.1854778 7.7874693,6.1697569 c -0.012088,0 -0.023526,-8.731e-4 -0.034943,-8.731e-4 -0.4576775,0 -0.6611878,0.3397627 -0.7371756,0.5196882 h -0.079467 c 0.069012,-0.3834334 0.3982835,-0.6681718 0.795694,-0.6681718 0.4052722,0 0.7354273,0.2847384 0.8044287,0.6681718"
       style="fill:#000000;fill-opacity:1;fill-rule:nonzero;stroke:none;stroke-width:0.390187"
       id="path3433" />
    <path
       d="M 8.5490108,6.8772343 H 8.4241029 c 0,0 -0.00627,-0.081235 -0.038435,-0.1886601 H 8.536766 c 0.00872,0.048038 0.013207,0.097822 0.013207,0.1493522 0,0.013207 0,0.02619 -8.707e-4,0.039308"
       style="fill:#000000;fill-opacity:1;fill-rule:nonzero;stroke:none;stroke-width:0.390187"
       id="path3437" />
    <path
       d="m 6.9777085,6.7985379 h -0.054149 c 0.00175,-0.037562 0.00627,-0.074251 0.012088,-0.1100449 h 0.080361 c -0.027959,0.065521 -0.038435,0.1100449 -0.038435,0.1100449"
       style="fill:#000000;fill-opacity:1;fill-rule:nonzero;stroke:none;stroke-width:0.390187"
       id="path3441" />
  </g>
</svg>
