<?xml version="1.0" encoding="UTF-8" standalone="no"?>
<!-- Created with Inkscape (http://www.inkscape.org/) -->

<svg
   width="5.5280309mm"
   height="7.7949171mm"
   viewBox="0 0 5.5280308 7.7949173"
   version="1.1"
   id="svg5"
   xmlns="http://www.w3.org/2000/svg"
   xmlns:svg="http://www.w3.org/2000/svg">
  <defs
     id="defs2" />
  <g
     id="layer1"
     transform="translate(-14.069275,-13.108415)">
    <path
       d="M 19.597306,20.274454 H 17.5897 c 0.0073,-0.0431 0.01124,-0.08683 0.01124,-0.131599 v -0.0062 l 0.948151,0.0062 0.0025,0.01458 0.09181,-0.01458 h 0.0252 l -8.1e-4,-0.0042 0.110506,-0.01874 -0.01645,-0.12431 h 0.835215 v 0.277856"
       style="fill:#000000;fill-opacity:1;fill-rule:nonzero;stroke:none;stroke-width:0.390188"
       id="path3665" />
    <path
       d="m 16.091507,20.274454 h -2.022232 v -0.277857 h 0.749908 l -0.05606,0.07309 0.182802,0.138886 0.05605,-0.07309 h 1.078144 v 0.0083 c 0,0.04477 0.0042,0.0885 0.01124,0.131598"
       style="fill:#000000;fill-opacity:1;fill-rule:nonzero;stroke:none;stroke-width:0.390188"
       id="path3669" />
    <path
       d="m 16.840603,20.903315 c -0.37211,0 -0.685722,-0.273795 -0.749096,-0.628861 h 0.112942 v -0.138887 h 0.08775 c 0,0 0.04793,-0.571975 0.552478,-0.571975 0.01541,0 0.03088,8.13e-4 0.04712,0.0016 0.342864,0.0252 0.476107,0.278689 0.526479,0.439543 v 0.269735 h 0.171432 c -0.06255,0.355066 -0.370487,0.628862 -0.749097,0.628862 m -0.482607,-0.760481 c 0,0.263239 0.219366,0.482625 0.482607,0.482625 0.270551,0 0.482606,-0.219386 0.482606,-0.482625 0,-0.270548 -0.212067,-0.489913 -0.482606,-0.489913 -0.263241,0 -0.482607,0.219365 -0.482607,0.489913"
       style="fill:#000000;fill-opacity:1;fill-rule:nonzero;stroke:none;stroke-width:0.390188"
       id="path3673" />
    <path
       d="m 17.5897,20.274454 h -0.171432 v -0.269736 c 0.02436,0.07559 0.02926,0.130766 0.02926,0.130766 l 0.153566,8.12e-4 v 0.0062 c 0,0.04477 -0.0042,0.0885 -0.01124,0.131598"
       style="fill:#000000;fill-opacity:1;fill-rule:nonzero;stroke:none;stroke-width:0.390188"
       id="path3677" />
    <path
       d="m 16.20444,20.274454 h -0.112941 c -0.0073,-0.0431 -0.01124,-0.08683 -0.01124,-0.131599 v -0.0083 h 0.12431 v 0.138886"
       style="fill:#000000;fill-opacity:1;fill-rule:nonzero;stroke:none;stroke-width:0.390188"
       id="path3681" />
    <path
       d="m 18.668656,20.142834 h -0.0252 l 0.02436,-0.0042 z"
       style="fill:#000000;fill-opacity:1;fill-rule:nonzero;stroke:none;stroke-width:0.390188"
       id="path3685" />
    <path
       d="m 18.529724,19.996514 h -0.942462 c -0.06742,-0.352609 -0.372924,-0.614223 -0.746659,-0.614223 -0.368047,0 -0.67841,0.261614 -0.746655,0.614223 h -0.98634 l 1.513629,-1.988907 1.586749,-4.614007 0.745845,0.219366 -0.672722,4.533569 0.248615,1.849979"
       style="fill:#000000;fill-opacity:1;fill-rule:nonzero;stroke:none;stroke-width:0.390188"
       id="path3689" />
    <path
       d="m 18.549224,20.142022 -0.948963,-0.0062 c 0,-0.04789 -0.0048,-0.09433 -0.01374,-0.139719 h 0.943276 l 0.01957,0.145341"
       style="fill:#000000;fill-opacity:1;fill-rule:nonzero;stroke:none;stroke-width:0.390188"
       id="path3693" />
    <path
       d="M 16.080134,20.135525 H 15.001988 L 15.1076,19.996639 h 0.986339 c -0.009,0.04477 -0.01291,0.09183 -0.01374,0.138886"
       style="fill:#000000;fill-opacity:1;fill-rule:nonzero;stroke:none;stroke-width:0.390188"
       id="path3697" />
    <path
       d="m 16.29227,20.135525 h -0.08775 v -0.138886 h -0.110506 c 0.06824,-0.352609 0.379423,-0.614224 0.746659,-0.614224 0.373734,0 0.679222,0.261615 0.746655,0.614224 h -0.168995 v 0.0083 c -0.05037,-0.160958 -0.183614,-0.414348 -0.52648,-0.439543 -0.01645,-8.12e-4 -0.03169,-0.0016 -0.04712,-0.0016 -0.504543,0 -0.552479,0.571974 -0.552479,0.571974"
       style="fill:#000000;fill-opacity:1;fill-rule:nonzero;stroke:none;stroke-width:0.390188"
       id="path3701" />
    <path
       d="m 17.601073,20.136254 -0.153566,-8.12e-4 c 0,0 -0.0048,-0.05518 -0.02926,-0.130765 v -0.0083 h 0.168996 c 0.009,0.0456 0.01374,0.09183 0.01374,0.139719"
       style="fill:#000000;fill-opacity:1;fill-rule:nonzero;stroke:none;stroke-width:0.390188"
       id="path3705" />
    <path
       d="m 16.20444,20.135525 h -0.12431 c 8.14e-4,-0.04706 0.0058,-0.09433 0.01374,-0.138886 h 0.110505 v 0.138886"
       style="fill:#000000;fill-opacity:1;fill-rule:nonzero;stroke:none;stroke-width:0.390188"
       id="path3709" />
    <path
       d="m 18.762091,19.996514 h -0.112942 l -0.251055,-1.849979 0.687348,-4.621315 -0.950587,-0.277877 -1.615998,4.709061 -1.55344,2.04011 h -0.145445 l 1.596498,-2.098601 1.637935,-4.789498 1.155329,0.336367 -0.694659,4.701753 z"
       style="fill:#000000;fill-opacity:1;fill-rule:nonzero;stroke:none;stroke-width:0.390188"
       id="path3713" />
    <path
       d="m 18.667844,20.138774 -0.01957,-0.142218 h 0.112941 l 0.01707,0.12431 z"
       style="fill:#000000;fill-opacity:1;fill-rule:nonzero;stroke:none;stroke-width:0.390188"
       id="path3717" />
    <path
       d="m 14.94674,20.208654 -0.182802,-0.138886 0.05606,-0.07309 h 0.144612 l -0.105612,0.138886 h 0.143801 z"
       style="fill:#000000;fill-opacity:1;fill-rule:nonzero;stroke:none;stroke-width:0.390188"
       id="path3721" />
    <path
       d="m 18.55166,20.157389 -0.0016,-0.01458 0.09343,8.12e-4 z"
       style="fill:#000000;fill-opacity:1;fill-rule:nonzero;stroke:none;stroke-width:0.390188"
       id="path3725" />
    <path
       d="m 18.649239,19.996514 h -0.118626 l -0.249427,-1.849979 0.672724,-4.533569 -0.745847,-0.219366 -1.586749,4.614007 -1.512817,1.988907 h -0.142988 l 1.553439,-2.04011 1.615997,-4.709061 0.950589,0.277877 -0.687349,4.621315 z"
       style="fill:#000000;fill-opacity:1;fill-rule:nonzero;stroke:none;stroke-width:0.390188"
       id="path3729" />
    <path
       d="m 18.643469,20.142834 -0.09343,-8.12e-4 -0.01957,-0.145341 h 0.118626 l 0.01957,0.142218 z"
       style="fill:#000000;fill-opacity:1;fill-rule:nonzero;stroke:none;stroke-width:0.390188"
       id="path3733" />
    <path
       d="m 15.002802,20.135525 h -0.1438 l 0.106424,-0.138886 h 0.142988 z"
       style="fill:#000000;fill-opacity:1;fill-rule:nonzero;stroke:none;stroke-width:0.390188"
       id="path3737" />
  </g>
</svg>
