<?xml version="1.0" encoding="UTF-8"?>
<!-- Created with Inkscape (http://www.inkscape.org/) -->
<svg width="4.923mm" height="8.0338mm" version="1.1" viewBox="0 0 18.607 30.364" xmlns="http://www.w3.org/2000/svg">
 <path d="m18.557 0.050437c-1.495 0.013-2.99 0.0244-4.485 0.0369-2.5364 6.1665-5.0728 12.333-7.6092 18.499-2.1203 2.7044-4.2406 5.4088-6.3608 8.1131 1.502 0.0216 3.0212 0.0216 4.5126 0.0505-0.082 2.23 2.3014 4.0665 4.4598 3.4385 1.5249-0.36113 2.6887-1.817 2.6895-3.3733 1.2993 0.013 2.5986 0.0287 3.8979 0.0409-0.51083-2.5684-1.0216-5.1368-1.5325-7.7052 1.4759-6.3663 2.9519-12.733 4.4278-19.099zm-10.426 23.69c1.9411-0.12168 3.5345 1.9799 2.8921 3.795-0.51931 1.9368-3.1906 2.7229-4.6914 1.3874-1.5943-1.1952-1.3486-3.9049 0.42705-4.8067 0.41705-0.23494 0.893-0.3644 1.3722-0.37589z" fill="none" stroke="#000" stroke-width=".1"/>
</svg>
