<?xml version="1.0" encoding="UTF-8"?>
<!-- Created with Inkscape (http://www.inkscape.org/) -->
<svg width="15" height="30" version="1.1" viewBox="0 0 15 30" xmlns="http://www.w3.org/2000/svg">
 <path d="m11.622 2.036-5.2207 20.184c-1.6226 0.4226-2.7979 1.8099-2.9314 3.4604h-3.2036v0.85457h3.2283c0.27151 1.9184 1.9289 3.3494 3.892 3.3605 1.9631-0.01114 3.6205-1.4422 3.892-3.3605h2.9831v-0.85457h-2.9629c-0.09146-1.1803-0.72128-2.2557-1.712-2.9233l5.241-20.72-1.3568-1.8736zm-4.2533 20.818c1.7681-1.73e-4 3.2015 1.4141 3.2014 3.1586 1.75e-4 1.7445-1.4333 3.1587-3.2014 3.1586-1.7681 1.73e-4 -3.2015-1.4141-3.2014-3.1586-1.747e-4 -1.7445 1.4333-3.1587 3.2014-3.1586z" fill="none" stroke="#000" stroke-width=".099998"/>
</svg>
