<?xml version="1.0" encoding="UTF-8"?>
<!-- Created with Inkscape (http://www.inkscape.org/) -->
<svg width="15" height="30" version="1.1" viewBox="0 0 15 30" xmlns="http://www.w3.org/2000/svg">
 <path d="m10.061 0.59845-5.157 21.887c-1.1989 1.0107-1.6072 1.5381-1.733 3.158h-3.022v0.83875h3.0453c0.25612 1.8829 1.8196 3.2875 3.6714 3.2983 1.8518-0.01103 3.4153-1.4155 3.6714-3.2983h2.814v-0.83875h-2.795c-0.026811-1.2378-0.60406-2.2296-0.86437-2.484l5.176-22.561zm-3.2123 22.272c1.6679-1.7e-4 3.0199 1.388 3.0199 3.1001 1.661e-4 1.7121-1.352 3.1003-3.0199 3.1001-1.6679 1.7e-4 -3.0199-1.388-3.0199-3.1001-1.651e-4 -1.7122 1.352-3.1003 3.0199-3.1001z" fill="none" stroke="#000" stroke-width=".1"/>
</svg>
