<?xml version="1.0" encoding="UTF-8" standalone="no"?>
<!-- Created with Inkscape (http://www.inkscape.org/) -->

<svg
   width="3.65328mm"
   height="7.2535329mm"
   viewBox="0 0 3.65328 7.2535331"
   version="1.1"
   id="svg5"
   xmlns="http://www.w3.org/2000/svg"
   xmlns:svg="http://www.w3.org/2000/svg">
  <defs
     id="defs2" />
  <g
     id="layer1"
     transform="translate(-16.073967,-15.999658)">
    <path
       d="m 17.691246,23.253091 c -0.372464,0 -0.686119,-0.266298 -0.751464,-0.624873 h 0.141303 v -0.27934 h -0.141303 c 0.04576,-0.241785 0.207475,-0.442708 0.425557,-0.544823 l -0.07105,0.280178 c 0,0 0.285066,-0.125812 0.48355,-0.125812 0.01068,0 0.02131,0 0.03104,8.16e-4 0.191125,0.01465 0.448426,0.110321 0.448426,0.110321 l 0.018,-0.07097 c 0.08413,0.09797 0.142957,0.218088 0.16745,0.35041 h -0.0825 v 0.279341 h 0.08329 c -0.06533,0.358574 -0.373279,0.624852 -0.752278,0.624852 m -0.485185,-0.764522 c 0,0.271992 0.22054,0.485182 0.485185,0.49253 0.271996,-0.0084 0.485184,-0.220538 0.485184,-0.49253 0,-0.264645 -0.213175,-0.485183 -0.485184,-0.485183 -0.264645,0 -0.485185,0.220538 -0.485185,0.485183"
       style="fill:#000000;fill-opacity:1;fill-rule:nonzero;stroke:none;stroke-width:0.390187;stroke-opacity:1"
       id="path961" />
    <path
       d="m 17.294279,22.084233 0.07105,-0.280178 c 0.09885,-0.04647 0.209912,-0.07264 0.325908,-0.07264 0.236055,0 0.444344,0.103622 0.584019,0.267094 l -0.018,0.07118 c 0,0 -0.257293,-0.09567 -0.448427,-0.110321 -0.0096,-8.16e-4 -0.02031,-8.16e-4 -0.03104,-8.16e-4 -0.198494,0 -0.483549,0.125812 -0.483549,0.125812"
       style="fill:#000000;fill-opacity:1;fill-rule:nonzero;stroke:none;stroke-width:0.390187;stroke-opacity:1"
       id="path969" />
    <path
       d="m 19.315877,22.628218 h -0.87235 c 0.0073,-0.04501 0.01235,-0.09148 0.01235,-0.139628 0,-0.04731 -0.0048,-0.09483 -0.01298,-0.139628 h 0.873168 v 0.279361"
       style="fill:#000000;fill-opacity:1;fill-rule:nonzero;stroke:none;stroke-width:0.390187;stroke-opacity:1"
       id="path973" />
    <path
       d="m 18.442708,22.628218 h -0.08332 v -0.27934 h 0.08332 c 0.0082,0.04501 0.01298,0.09232 0.01298,0.139628 0,0.04815 -0.0048,0.09483 -0.01298,0.139628"
       style="fill:#000000;fill-opacity:1;fill-rule:nonzero;stroke:none;stroke-width:0.390187;stroke-opacity:1"
       id="path977" />
    <path
       d="m 16.939782,22.628218 h -0.865815 v -0.27934 h 0.866634 c -0.009,0.04501 -0.01382,0.09232 -0.01382,0.139628 0,0.04815 0.0048,0.09483 0.01298,0.139628"
       style="fill:#000000;fill-opacity:1;fill-rule:nonzero;stroke:none;stroke-width:0.390187;stroke-opacity:1"
       id="path981" />
    <path
       d="m 17.081091,22.628218 h -0.141303 c -0.0082,-0.04501 -0.01298,-0.09148 -0.01298,-0.139628 0,-0.04731 0.0048,-0.09483 0.01298,-0.139628 h 0.141303 v 0.279361"
       style="fill:#000000;fill-opacity:1;fill-rule:nonzero;stroke:none;stroke-width:0.390187;stroke-opacity:1"
       id="path985" />
    <path
       d="m 18.359392,22.348878 c -0.139671,-0.163284 -0.434552,-0.401361 -0.67061,-0.401361 -0.115973,0 -0.361218,0.125728 -0.460059,0.172201 l 1.307065,-5.378242 0.721179,-0.741818 0.47028,0.861486"
       style="fill:#000000;fill-opacity:1;fill-rule:nonzero;stroke:none;stroke-width:0.390187;stroke-opacity:1"
       id="path965" />
  </g>
</svg>
