<?xml version="1.0" encoding="UTF-8" standalone="no"?>
<!-- Created with Inkscape (http://www.inkscape.org/) -->

<svg
   width="3.8086929mm"
   height="7.2618899mm"
   viewBox="0 0 3.8086928 7.2618902"
   version="1.1"
   id="svg5"
   xmlns="http://www.w3.org/2000/svg"
   xmlns:svg="http://www.w3.org/2000/svg">
  <defs
     id="defs2" />
  <g
     id="layer1"
     transform="translate(-16.073966,-16.123884)">
    <path
       d="m 17.753287,23.38566 c -0.386753,0 -0.712441,-0.276513 -0.780291,-0.648843 h 0.146723 V 22.44676 h -0.146723 c 0.04752,-0.251059 0.215432,-0.459691 0.44188,-0.565722 l -0.07378,0.290926 c 0,0 0.296001,-0.130635 0.5021,-0.130635 0.01112,0 0.02211,0 0.03224,8.48e-4 0.198456,0.01522 0.465628,0.114557 0.465628,0.114557 l 0.01868,-0.07369 c 0.08737,0.101731 0.148441,0.226453 0.173873,0.363852 h -0.08566 v 0.290056 h 0.08648 c -0.06784,0.372329 -0.387599,0.648822 -0.781136,0.648822 m -0.503798,-0.79385 c 0,0.282426 0.229,0.503793 0.503798,0.511424 0.282429,-0.0088 0.503795,-0.228998 0.503795,-0.511424 0,-0.274797 -0.221352,-0.503795 -0.503795,-0.503795 -0.274798,0 -0.503798,0.228998 -0.503798,0.503795"
       style="fill:#000000;fill-opacity:1;fill-rule:nonzero;stroke:none;stroke-width:0.390187;stroke-opacity:1"
       id="path961" />
    <path
       d="m 18.449621,22.222324 c -0.145028,-0.169547 -0.451221,-0.416756 -0.696334,-0.416756 -0.120421,0 -0.375077,0.130551 -0.477709,0.178806 l 1.414394,-5.85779 1.192687,-0.0027"
       style="fill:#000000;fill-opacity:1;fill-rule:nonzero;stroke:none;stroke-width:0.390187;stroke-opacity:1"
       id="path965" />
    <path
       d="m 17.34109,22.171964 0.07378,-0.290926 c 0.102634,-0.04827 0.217965,-0.07542 0.33841,-0.07542 0.245111,0 0.461391,0.107595 0.606422,0.27734 l -0.01868,0.07391 c 0,0 -0.267163,-0.09934 -0.465629,-0.114558 -0.01,-8.47e-4 -0.02108,-8.47e-4 -0.03224,-8.47e-4 -0.206109,0 -0.502099,0.130634 -0.502099,0.130634"
       style="fill:#000000;fill-opacity:1;fill-rule:nonzero;stroke:none;stroke-width:0.390187;stroke-opacity:1"
       id="path969" />
    <path
       d="m 19.44024,22.736817 h -0.905813 c 0.0076,-0.04674 0.01278,-0.09499 0.01278,-0.144985 0,-0.04912 -0.005,-0.09847 -0.01348,-0.144985 h 0.906666 v 0.290079"
       style="fill:#000000;fill-opacity:1;fill-rule:nonzero;stroke:none;stroke-width:0.390187;stroke-opacity:1"
       id="path973" />
    <path
       d="m 18.533575,22.736817 h -0.08651 V 22.44676 h 0.08651 c 0.0085,0.04674 0.01348,0.09585 0.01348,0.144985 0,0.04999 -0.005,0.09847 -0.01348,0.144984"
       style="fill:#000000;fill-opacity:1;fill-rule:nonzero;stroke:none;stroke-width:0.390187;stroke-opacity:1"
       id="path977" />
    <path
       d="m 16.972996,22.736817 h -0.89903 V 22.44676 h 0.899878 c -0.0093,0.04674 -0.01434,0.09585 -0.01434,0.144985 0,0.04999 0.005,0.09847 0.01348,0.144984"
       style="fill:#000000;fill-opacity:1;fill-rule:nonzero;stroke:none;stroke-width:0.390187;stroke-opacity:1"
       id="path981" />
    <path
       d="m 17.119725,22.736817 h -0.146724 c -0.0085,-0.04674 -0.01348,-0.09499 -0.01348,-0.144985 0,-0.04912 0.005,-0.09847 0.01348,-0.144985 h 0.146724 v 0.290079"
       style="fill:#000000;fill-opacity:1;fill-rule:nonzero;stroke:none;stroke-width:0.390187;stroke-opacity:1"
       id="path985" />
  </g>
</svg>
