<?xml version="1.0" encoding="UTF-8"?>
<!-- Created with Inkscape (http://www.inkscape.org/) -->
<svg width="27.19" height="19.02" version="1.1" viewBox="0 0 27.19 19.02" xmlns="http://www.w3.org/2000/svg">
 <path d="m14.243 0.050232c-5.0171 0.05785-9.0394 3.8035-9.0397 9.1701 0.00137 1.9384 0.54382 3.8311 1.5533 5.4395-2.324 0.02349-4.6194 0.05955-6.7063 0.12774v0.84785h9.8744c0.26441 1.9033 1.8785 3.3231 3.7902 3.3341 1.9118-0.01107 3.5259-1.431 3.7902-3.3341h9.6356v-0.84786s-2.0711-0.04423-5.1487-0.08588c1.0265-1.6175 1.5761-3.5261 1.5774-5.4814-2.05e-4 -5.4079-4.1371-9.1691-9.2083-9.1701-0.03964-2.8e-6 -0.0788-4.556e-4 -0.11831-2.7e-6zm-0.48857 11.914c1.7219-1.71e-4 3.1178 1.403 3.1176 3.1338 1.69e-4 1.7308-1.3957 3.134-3.1176 3.1338-1.7219 1.7e-4 -3.1178-1.403-3.1176-3.1338-1.71e-4 -1.7308 1.3957-3.134 3.1176-3.1338z" fill="none" stroke="#000" stroke-width=".1"/>
</svg>
