<?xml version="1.0" encoding="UTF-8" standalone="no"?>
<!-- Created with Inkscape (http://www.inkscape.org/) -->

<svg
   width="2.7145269mm"
   height="2.04018mm"
   viewBox="0 0 2.7145269 2.04018"
   version="1.1"
   id="svg5"
   xmlns="http://www.w3.org/2000/svg"
   xmlns:svg="http://www.w3.org/2000/svg">
  <defs
     id="defs2" />
  <g
     id="layer1"
     transform="translate(-7.670159,-4.963857)">
    <g
       id="g15916">
      <path
         d="m 9.038153,6.292227 c -0.0359,-0.0121 -0.07452,-0.0187 -0.114325,-0.0187 -0.0062,0 -0.01249,0 -0.01834,4e-4 l 0.364433,-1.00005 c 0.04175,0.0129 0.08233,0.0289 0.120958,0.048 l -0.352728,0.97039"
         style="fill:#231f20;fill-opacity:1;fill-rule:nonzero;stroke:none;stroke-width:0.390187"
         id="path3489" />
      <path
         d="M 10.384686,6.705477 H 9.2828 c 0.0039,-0.0215 0.0062,-0.0437 0.0062,-0.0667 0,-0.0226 -0.0023,-0.0449 -0.0062,-0.0667 h 0.420231 c -0.02458,0.0258 -0.05384,0.0597 -0.0355,0.0597 0.0031,0 0.0082,-10e-4 0.01482,-0.003 0.0094,-0.003 0.0203,-0.004 0.03121,-0.004 0.06282,0 0.143198,0.0406 0.153733,0.0457 l 0.01522,0.0148 c 0.0051,-0.005 0.0097,-0.0113 0.01483,-0.0172 l 0.101059,-0.0109 c 0.01834,-0.0269 0.03434,-0.0554 0.04916,-0.0843 h 0.337121 v 0.13344"
         style="fill:#231f20;fill-opacity:1;fill-rule:nonzero;stroke:none;stroke-width:0.390187"
         id="path3493" />
      <path
         d="M 8.564466,6.705477 H 7.670159 v -0.13344 h 0.370288 c 0.01326,0.025 0.02653,0.0488 0.04058,0.0702 0.0062,0.0133 0.02107,0.0168 0.03824,0.0168 0.01018,0 0.02107,-10e-4 0.032,-0.003 0.0097,-0.002 0.01951,-0.003 0.02888,-0.003 0.01018,0.0121 0.02028,0.0238 0.03083,0.0343 l 0.03004,-0.0312 0.170121,-0.0425 -0.03589,-0.0421 h 0.189631 c -0.0043,0.0219 -0.0062,0.0441 -0.0062,0.0667 0,0.023 0.002,0.0453 0.0059,0.0667"
         style="fill:#231f20;fill-opacity:1;fill-rule:nonzero;stroke:none;stroke-width:0.390187"
         id="path3497" />
      <path
         d="m 8.923868,7.003967 c -0.180657,0 -0.328537,-0.1272 -0.359363,-0.29849 h 0.05736 v -0.13344 h -0.05697 c 0.03004,-0.1631 0.168561,-0.28952 0.340633,-0.29811 l -0.0062,0.0172 0.122909,0.0457 0.01599,-0.0445 c 0.12447,0.0418 0.220065,0.14906 0.244647,0.27977 h -0.05696 v 0.13344 h 0.05696 c -0.03121,0.17129 -0.181436,0.2985 -0.358971,0.2985 M 8.692132,6.638817 c 0,0.12993 0.101844,0.23177 0.231771,0.23528 0.12642,-0.004 0.23177,-0.10535 0.23177,-0.23528 0,-0.12642 -0.10535,-0.23177 -0.23177,-0.23177 -0.129933,0 -0.231771,0.10535 -0.231771,0.23177"
         style="fill:#231f20;fill-opacity:1;fill-rule:nonzero;stroke:none;stroke-width:0.390187"
         id="path3501" />
      <path
         d="m 9.022155,6.336747 -0.122909,-0.0457 0.0062,-0.0172 c 0.0062,-3.9e-4 0.0121,-3.9e-4 0.01834,-3.9e-4 0.0398,0 0.07843,0.007 0.114325,0.0187 l -0.01599,0.0445"
         style="fill:#231f20;fill-opacity:1;fill-rule:nonzero;stroke:none;stroke-width:0.390187"
         id="path3505" />
      <path
         d="M 9.2828,6.705477 H 9.22583 V 6.572037 H 9.2828 c 0.0039,0.0219 0.0062,0.0441 0.0062,0.0667 0,0.023 -0.0023,0.0453 -0.0062,0.0667"
         style="fill:#231f20;fill-opacity:1;fill-rule:nonzero;stroke:none;stroke-width:0.390187"
         id="path3509" />
      <path
         d="m 8.621824,6.705477 h -0.05736 c -0.0039,-0.0215 -0.0059,-0.0437 -0.0059,-0.0667 0,-0.0226 0.0023,-0.0449 0.0062,-0.0667 h 0.05696 v 0.13344"
         style="fill:#231f20;fill-opacity:1;fill-rule:nonzero;stroke:none;stroke-width:0.390187"
         id="path3513" />
      <path
         d="m 8.210957,6.687917 c -0.01051,-0.0105 -0.02068,-0.0222 -0.03083,-0.0347 h 0.0031 c 0.01249,0 0.02341,0.002 0.03121,0.0102 l 0.02653,-0.007 -0.03004,0.0312"
         style="fill:#231f20;fill-opacity:1;fill-rule:nonzero;stroke:none;stroke-width:0.390187"
         id="path3517" />
      <path
         d="m 9.882556,6.684407 -0.01522,-0.0148 c 7.81e-4,3.9e-4 0.0012,7.8e-4 0.0012,7.8e-4 l 0.02887,-0.003 c -0.0051,0.006 -0.0097,0.0117 -0.01482,0.0172"
         style="fill:#231f20;fill-opacity:1;fill-rule:nonzero;stroke:none;stroke-width:0.390187"
         id="path3521" />
      <path
         d="M 9.80565,6.572037 H 9.703031 c 0.01522,-0.0156 0.02848,-0.0281 0.02848,-0.0281 0.179095,-0.19314 0.165049,-0.58294 0.08779,-0.76204 -0.08428,-0.20406 -0.238404,-0.36716 -0.428034,-0.46003 l 0.02419,-0.0667 c 0.20797,0.0995 0.37653,0.27704 0.470565,0.49866 0.03161,0.0773 0.05969,0.20719 0.05969,0.34415 0,0.16934 -0.04058,0.35077 -0.140077,0.47407 m -1.430423,0 h -0.09286 c -0.07999,-0.0948 -0.169342,-0.32346 -0.166221,-0.53728 0,-0.0983 0.01756,-0.19315 0.05619,-0.27392 v -0.004 c 0.143979,-0.35116 0.477589,-0.58996 0.85685,-0.58996 0.09209,0 0.181046,0.014 0.265327,0.0402 l -0.02419,0.0663 c -0.07687,-0.0234 -0.158026,-0.0363 -0.241136,-0.0363 -0.347656,0 -0.656684,0.22475 -0.790128,0.55134 -0.122908,0.24581 0.0035,0.64614 0.112374,0.75501 l 0.0238,0.0281"
         style="fill:#231f20;fill-opacity:1;fill-rule:nonzero;stroke:none;stroke-width:0.390187"
         id="path3525" />
      <path
         d="m 9.391272,5.321837 c -0.03902,-0.0191 -0.0792,-0.0351 -0.120958,-0.048 l 0.02419,-0.0663 c 0.04175,0.0129 0.08193,0.0289 0.120958,0.0476 l -0.02419,0.0667"
         style="fill:#231f20;fill-opacity:1;fill-rule:nonzero;stroke:none;stroke-width:0.390187"
         id="path3529" />
      <path
         d="m 9.867299,6.669577 c -0.01051,-0.005 -0.09092,-0.0457 -0.153733,-0.0457 -0.01095,0 -0.02186,10e-4 -0.03121,0.004 -0.0066,0.002 -0.0117,0.004 -0.01482,0.004 -0.01834,0 0.01095,-0.0339 0.0355,-0.0597 h 0.102618 c -0.0059,0.007 -0.0117,0.014 -0.01795,0.0211 l 0.0796,0.0765"
         style="fill:#231f20;fill-opacity:1;fill-rule:nonzero;stroke:none;stroke-width:0.390187"
         id="path3533" />
      <path
         d="m 8.241041,6.656707 0.06126,-0.0636 c -0.0066,-0.006 -0.01326,-0.0133 -0.0199,-0.0211 h 0.09286 l 0.0359,0.0421 -0.170122,0.0425"
         style="fill:#231f20;fill-opacity:1;fill-rule:nonzero;stroke:none;stroke-width:0.390187"
         id="path3537" />
      <path
         d="m 10.047565,6.572037 h -0.08311 c 0.08428,-0.14476 0.114714,-0.31683 0.114714,-0.47408 0,-0.15373 -0.02771,-0.29381 -0.07296,-0.39565 l 0.0028,-0.001 C 9.84396,5.307997 9.464699,5.034087 9.02925,5.034087 c -0.435448,0 -0.814709,0.27742 -0.979758,0.67424 l 0.0015,7.8e-4 c -0.05111,0.10068 -0.06829,0.215 -0.06829,0.32581 0,0.2029 0.05931,0.39955 0.140857,0.53729 h -0.08272 c -0.120958,-0.2349 -0.191192,-0.60635 -0.05813,-0.89197 0.175584,-0.4214 0.579427,-0.71638 1.04648,-0.71638 0.467053,0 0.870896,0.29147 1.042969,0.70936 0.08662,0.19899 0.129152,0.59386 -0.02458,0.89899"
         style="fill:#231f20;fill-opacity:1;fill-rule:nonzero;stroke:none;stroke-width:0.390187"
         id="path3541" />
      <path
         d="m 9.897344,6.667197 c 0.02536,-0.03 0.0476,-0.062 0.06711,-0.0952 h 0.08311 c -0.01443,0.0289 -0.03083,0.0574 -0.04916,0.0843 l -0.101059,0.011"
         style="fill:#231f20;fill-opacity:1;fill-rule:nonzero;stroke:none;stroke-width:0.390187"
         id="path3545" />
      <path
         d="m 8.119264,6.659007 c -0.01678,0 -0.03161,-0.004 -0.03824,-0.0168 -0.01366,-0.0215 -0.02731,-0.0453 -0.04019,-0.0702 h 0.08272 c 0.01795,0.0304 0.03706,0.0574 0.05657,0.0816 -0.009,0 -0.01912,0.001 -0.02888,0.003 -0.01051,0.002 -0.02184,0.003 -0.032,0.003"
         style="fill:#231f20;fill-opacity:1;fill-rule:nonzero;stroke:none;stroke-width:0.390187"
         id="path3549" />
      <path
         d="M 9.964456,6.572037 H 9.80565 c 0.0995,-0.1233 0.140076,-0.30474 0.140076,-0.47408 0,-0.13696 -0.02809,-0.26689 -0.05969,-0.34414 -0.09403,-0.22163 -0.262595,-0.39917 -0.470565,-0.49866 l 0.04214,-0.11589 -0.122909,-0.0421 -0.04019,0.11043 c -0.08428,-0.0262 -0.173242,-0.0402 -0.265327,-0.0402 -0.379261,0 -0.71287,0.23879 -0.856849,0.58996 v 0.004 c -0.03862,0.0808 -0.05619,0.17559 -0.05619,0.27391 -0.0031,0.21382 0.08623,0.44247 0.16622,0.53729 H 8.12356 C 8.04201,6.434817 7.982702,6.238167 7.982702,6.035267 c 0,-0.11081 0.01756,-0.22513 0.06829,-0.3258 l -0.0015,-7.8e-4 c 0.165049,-0.39682 0.54431,-0.67425 0.979758,-0.67425 0.435448,0 0.814709,0.27392 0.979758,0.66722 l -0.0028,0.001 c 0.04526,0.10184 0.07297,0.24192 0.07297,0.39565 0,0.15725 -0.03044,0.32932 -0.114715,0.47408 M 8.112638,5.733097 v 0"
         style="fill:#231f20;fill-opacity:1;fill-rule:nonzero;stroke:none;stroke-width:0.390187"
         id="path3553" />
      <path
         d="m 9.415463,5.255157 c -0.03902,-0.0187 -0.0796,-0.0347 -0.120958,-0.0476 l 0.04019,-0.11043 0.122908,0.0421 -0.04214,0.11589"
         style="fill:#231f20;fill-opacity:1;fill-rule:nonzero;stroke:none;stroke-width:0.390187"
         id="path3557" />
      <path
         d="m 9.868469,6.670357 c 0,0 -3.89e-4,-3.9e-4 -0.0012,-7.8e-4 l -0.0796,-0.0765 c 0.0062,-0.007 0.0121,-0.014 0.01795,-0.0211 h 0.158806 c -0.01951,0.0332 -0.04175,0.0652 -0.06711,0.0952 l -0.02888,0.003"
         style="fill:#231f20;fill-opacity:1;fill-rule:nonzero;stroke:none;stroke-width:0.390187"
         id="path3561" />
      <path
         d="m 8.214469,6.663337 c -0.0079,-0.008 -0.01872,-0.0102 -0.03121,-0.0102 h -0.0031 c -0.0199,-0.0238 -0.03863,-0.0507 -0.05657,-0.0812 h 0.158807 c 0.0066,0.008 0.01326,0.0152 0.0199,0.0211 l -0.06126,0.0636 -0.02653,0.007"
         style="fill:#231f20;fill-opacity:1;fill-rule:nonzero;stroke:none;stroke-width:0.390187"
         id="path3565" />
    </g>
  </g>
</svg>
