<?xml version="1.0" encoding="UTF-8" standalone="no"?>
<!-- Created with Inkscape (http://www.inkscape.org/) -->

<svg
   width="10.641387mm"
   height="3.3868549mm"
   viewBox="0 0 10.641387 3.3868548"
   version="1.1"
   id="svg5"
   xmlns="http://www.w3.org/2000/svg"
   xmlns:svg="http://www.w3.org/2000/svg">
  <defs
     id="defs2" />
  <g
     id="layer1"
     transform="translate(-15.83056,-18.885251)">
    <path
       d="m 20.38477,21.618776 h -4.55421 v -0.262842 h 1.212398 l -0.01839,0.05261 0.450581,0.150122 0.07177,-0.202729 h 2.838662 c -0.0075,0.04426 -0.01155,0.08939 -0.01155,0.135153 0,0.04341 0.0043,0.08597 0.0109,0.127668"
       style="fill:#000000;fill-opacity:1;fill-rule:nonzero;stroke:none;stroke-width:0.390187"
       id="path1041" />
    <path
       d="m 26.471792,21.618776 h -4.546699 c 0.0066,-0.0417 0.0109,-0.08426 0.0109,-0.127668 0,-0.04598 -0.0043,-0.09089 -0.01155,-0.135152 h 2.839494 l 0.07094,0.202728 0.443072,-0.150122 -0.0184,-0.05261 h 1.212398 v 0.262842"
       style="fill:#000000;fill-opacity:1;fill-rule:nonzero;stroke:none;stroke-width:0.390187"
       id="path1045" />
    <path
       d="m 21.15493,22.272106 c -0.391338,0 -0.710084,-0.28536 -0.77016,-0.65333 h 0.176896 l 0.05256,-0.262842 h -0.228625 c 0.0626,-0.369638 0.379655,-0.645825 0.769325,-0.645825 0.382996,0 0.705076,0.276187 0.769327,0.645825 h -0.176062 l -0.05256,0.262842 h 0.229454 c -0.06176,0.36797 -0.385499,0.65333 -0.77016,0.65333 m -0.495641,-0.780998 c 0,0.270348 0.217793,0.495638 0.495641,0.495638 0.270347,0 0.495637,-0.22529 0.495637,-0.495638 0,-0.277855 -0.22529,-0.495638 -0.495637,-0.495638 -0.277859,0 -0.495641,0.217783 -0.495641,0.495638"
       style="fill:#000000;fill-opacity:1;fill-rule:nonzero;stroke:none;stroke-width:0.390187"
       id="path1049" />
    <path
       d="M 20.561666,21.618776 H 20.38477 c -0.0075,-0.0417 -0.0109,-0.08426 -0.0109,-0.127668 0,-0.04598 0.0043,-0.09089 0.01155,-0.135152 h 0.228625 l -0.05256,0.262841"
       style="fill:#000000;fill-opacity:1;fill-rule:nonzero;stroke:none;stroke-width:0.390187"
       id="path1053" />
    <path
       d="m 21.925093,21.618776 h -0.229455 l 0.05256,-0.262842 h 0.176062 c 0.0075,0.04426 0.01155,0.08939 0.01155,0.135153 0,0.04341 -0.0043,0.08597 -0.0109,0.127667"
       style="fill:#000000;fill-opacity:1;fill-rule:nonzero;stroke:none;stroke-width:0.390187"
       id="path1057" />
    <path
       d="M 25.259392,21.355934 H 24.76292 l -0.701739,-1.997585 h -5.8125 l -0.702573,1.997585 h -0.50315 l 0.867786,-2.470683 h 6.488372 z"
       style="fill:#000000;fill-opacity:1;fill-rule:nonzero;stroke:none;stroke-width:0.390187"
       id="path1061" />
    <path
       d="m 17.475183,21.558684 -0.450582,-0.150122 0.01839,-0.05261 h 0.50315 z"
       style="fill:#000000;fill-opacity:1;fill-rule:nonzero;stroke:none;stroke-width:0.390187"
       id="path1065" />
    <path
       d="m 24.83468,21.558684 -0.07094,-0.202728 h 0.495638 l 0.01839,0.0526 z"
       style="fill:#000000;fill-opacity:1;fill-rule:nonzero;stroke:none;stroke-width:0.390187"
       id="path1069" />
  </g>
</svg>
